<mxfile host="Electron" agent="Mozilla/5.0 (Windows NT 10.0; Win64; x64) AppleWebKit/537.36 (KHTML, like Gecko) draw.io/26.0.16 Chrome/132.0.6834.196 Electron/34.2.0 Safari/537.36" version="26.0.16">
  <diagram name="Page-1" id="BNgpEM-C9Mm1zyMT7nmT">
    <mxGraphModel dx="864" dy="508" grid="1" gridSize="10" guides="1" tooltips="1" connect="1" arrows="1" fold="1" page="1" pageScale="1" pageWidth="850" pageHeight="1100" math="0" shadow="0">
      <root>
        <mxCell id="0" />
        <mxCell id="1" parent="0" />
        <mxCell id="i06r9j__efvkisi5VzC8-1" value="&lt;font size=&quot;3&quot; face=&quot;Times New Roman&quot;&gt;start&lt;/font&gt;" style="ellipse;whiteSpace=wrap;html=1;" parent="1" vertex="1">
          <mxGeometry x="80" y="40" width="110" height="40" as="geometry" />
        </mxCell>
        <mxCell id="i06r9j__efvkisi5VzC8-5" value="" style="endArrow=classic;html=1;rounded=0;exitX=0.5;exitY=1;exitDx=0;exitDy=0;" parent="1" source="i06r9j__efvkisi5VzC8-1" edge="1">
          <mxGeometry width="50" height="50" relative="1" as="geometry">
            <mxPoint x="130" y="90" as="sourcePoint" />
            <mxPoint x="135" y="100" as="targetPoint" />
            <Array as="points" />
          </mxGeometry>
        </mxCell>
        <mxCell id="i06r9j__efvkisi5VzC8-6" value="&amp;nbsp;Range =0" style="shape=parallelogram;perimeter=parallelogramPerimeter;whiteSpace=wrap;html=1;fixedSize=1;" parent="1" vertex="1">
          <mxGeometry x="60" y="100" width="160" height="30" as="geometry" />
        </mxCell>
        <mxCell id="i06r9j__efvkisi5VzC8-7" value="" style="endArrow=classic;html=1;rounded=0;exitX=0.45;exitY=1.1;exitDx=0;exitDy=0;exitPerimeter=0;" parent="1" source="i06r9j__efvkisi5VzC8-6" edge="1">
          <mxGeometry width="50" height="50" relative="1" as="geometry">
            <mxPoint x="134.50000000000003" y="160" as="sourcePoint" />
            <mxPoint x="132" y="150" as="targetPoint" />
          </mxGeometry>
        </mxCell>
        <mxCell id="i06r9j__efvkisi5VzC8-17" style="edgeStyle=orthogonalEdgeStyle;rounded=0;orthogonalLoop=1;jettySize=auto;html=1;" parent="1" source="i06r9j__efvkisi5VzC8-9" edge="1">
          <mxGeometry relative="1" as="geometry">
            <mxPoint x="135" y="200" as="targetPoint" />
          </mxGeometry>
        </mxCell>
        <mxCell id="i06r9j__efvkisi5VzC8-9" value="Manginya" style="shape=parallelogram;perimeter=parallelogramPerimeter;whiteSpace=wrap;html=1;fixedSize=1;" parent="1" vertex="1">
          <mxGeometry x="75" y="150" width="120" height="30" as="geometry" />
        </mxCell>
        <mxCell id="i06r9j__efvkisi5VzC8-12" value="Oil temperature" style="shape=parallelogram;perimeter=parallelogramPerimeter;whiteSpace=wrap;html=1;fixedSize=1;" parent="1" vertex="1">
          <mxGeometry x="50" y="200" width="140" height="30" as="geometry" />
        </mxCell>
        <mxCell id="i06r9j__efvkisi5VzC8-13" value="" style="endArrow=classic;html=1;rounded=0;exitX=0.571;exitY=1.033;exitDx=0;exitDy=0;exitPerimeter=0;" parent="1" source="i06r9j__efvkisi5VzC8-12" edge="1">
          <mxGeometry width="50" height="50" relative="1" as="geometry">
            <mxPoint x="400" y="310" as="sourcePoint" />
            <mxPoint x="130" y="250" as="targetPoint" />
            <Array as="points" />
          </mxGeometry>
        </mxCell>
        <mxCell id="i06r9j__efvkisi5VzC8-15" value="Enter min temperatute" style="rhombus;whiteSpace=wrap;html=1;" parent="1" vertex="1">
          <mxGeometry x="50" y="250" width="160" height="90" as="geometry" />
        </mxCell>
        <mxCell id="i06r9j__efvkisi5VzC8-18" value="" style="endArrow=classic;html=1;rounded=0;exitX=0.5;exitY=1;exitDx=0;exitDy=0;" parent="1" source="i06r9j__efvkisi5VzC8-15" edge="1">
          <mxGeometry width="50" height="50" relative="1" as="geometry">
            <mxPoint x="400" y="310" as="sourcePoint" />
            <mxPoint x="130" y="370" as="targetPoint" />
          </mxGeometry>
        </mxCell>
        <mxCell id="i06r9j__efvkisi5VzC8-19" value="Enter max temperature" style="rhombus;whiteSpace=wrap;html=1;" parent="1" vertex="1">
          <mxGeometry x="50" y="370" width="160" height="90" as="geometry" />
        </mxCell>
        <mxCell id="i06r9j__efvkisi5VzC8-20" value="" style="endArrow=classic;html=1;rounded=0;exitX=1;exitY=0.5;exitDx=0;exitDy=0;" parent="1" source="i06r9j__efvkisi5VzC8-15" edge="1">
          <mxGeometry width="50" height="50" relative="1" as="geometry">
            <mxPoint x="400" y="310" as="sourcePoint" />
            <mxPoint x="260" y="295" as="targetPoint" />
          </mxGeometry>
        </mxCell>
        <mxCell id="i06r9j__efvkisi5VzC8-22" value="" style="endArrow=classic;html=1;rounded=0;exitX=0.5;exitY=1;exitDx=0;exitDy=0;" parent="1" source="i06r9j__efvkisi5VzC8-19" edge="1">
          <mxGeometry width="50" height="50" relative="1" as="geometry">
            <mxPoint x="400" y="310" as="sourcePoint" />
            <mxPoint x="130" y="480" as="targetPoint" />
          </mxGeometry>
        </mxCell>
        <mxCell id="i06r9j__efvkisi5VzC8-23" value="Range = 0" style="rounded=0;whiteSpace=wrap;html=1;" parent="1" vertex="1">
          <mxGeometry x="72" y="480" width="120" height="40" as="geometry" />
        </mxCell>
        <mxCell id="i06r9j__efvkisi5VzC8-24" value="10 degrees" style="rounded=0;whiteSpace=wrap;html=1;" parent="1" vertex="1">
          <mxGeometry x="260" y="265" width="80" height="45" as="geometry" />
        </mxCell>
        <mxCell id="i06r9j__efvkisi5VzC8-25" value="50 degrees" style="rounded=0;whiteSpace=wrap;html=1;" parent="1" vertex="1">
          <mxGeometry x="250" y="385" width="90" height="45" as="geometry" />
        </mxCell>
        <mxCell id="i06r9j__efvkisi5VzC8-26" value="" style="endArrow=classic;html=1;rounded=0;exitX=1;exitY=0.5;exitDx=0;exitDy=0;" parent="1" source="i06r9j__efvkisi5VzC8-19" edge="1">
          <mxGeometry width="50" height="50" relative="1" as="geometry">
            <mxPoint x="400" y="310" as="sourcePoint" />
            <mxPoint x="250" y="415" as="targetPoint" />
          </mxGeometry>
        </mxCell>
        <mxCell id="i06r9j__efvkisi5VzC8-27" value="" style="endArrow=classic;html=1;rounded=0;exitX=1;exitY=0.5;exitDx=0;exitDy=0;" parent="1" source="i06r9j__efvkisi5VzC8-12" edge="1">
          <mxGeometry width="50" height="50" relative="1" as="geometry">
            <mxPoint x="400" y="310" as="sourcePoint" />
            <mxPoint x="200" y="500" as="targetPoint" />
            <Array as="points">
              <mxPoint x="480" y="215" />
              <mxPoint x="480" y="500" />
            </Array>
          </mxGeometry>
        </mxCell>
        <mxCell id="i06r9j__efvkisi5VzC8-30" value="" style="endArrow=classic;html=1;rounded=0;exitX=0.5;exitY=1;exitDx=0;exitDy=0;entryX=0.75;entryY=1;entryDx=0;entryDy=0;" parent="1" source="i06r9j__efvkisi5VzC8-23" target="i06r9j__efvkisi5VzC8-33" edge="1">
          <mxGeometry width="50" height="50" relative="1" as="geometry">
            <mxPoint x="400" y="440" as="sourcePoint" />
            <mxPoint x="132" y="540" as="targetPoint" />
          </mxGeometry>
        </mxCell>
        <mxCell id="i06r9j__efvkisi5VzC8-31" value="False" style="text;strokeColor=none;align=center;fillColor=none;html=1;verticalAlign=middle;whiteSpace=wrap;rounded=0;" parent="1" vertex="1">
          <mxGeometry x="220" y="470" width="60" height="30" as="geometry" />
        </mxCell>
        <mxCell id="i06r9j__efvkisi5VzC8-32" value="Min temp&lt;div&gt;&amp;nbsp;&amp;gt; 50 degrees&lt;/div&gt;" style="rhombus;whiteSpace=wrap;html=1;" parent="1" vertex="1">
          <mxGeometry x="60" y="560" width="140" height="100" as="geometry" />
        </mxCell>
        <mxCell id="i06r9j__efvkisi5VzC8-33" value="True" style="text;strokeColor=none;align=center;fillColor=none;html=1;verticalAlign=middle;whiteSpace=wrap;rounded=0;rotation=90;" parent="1" vertex="1">
          <mxGeometry x="125" y="525" width="60" height="40" as="geometry" />
        </mxCell>
        <mxCell id="i06r9j__efvkisi5VzC8-34" value="" style="endArrow=classic;html=1;rounded=0;exitX=1;exitY=0.5;exitDx=0;exitDy=0;" parent="1" source="i06r9j__efvkisi5VzC8-32" edge="1">
          <mxGeometry width="50" height="50" relative="1" as="geometry">
            <mxPoint x="400" y="450" as="sourcePoint" />
            <mxPoint x="250" y="610" as="targetPoint" />
          </mxGeometry>
        </mxCell>
        <mxCell id="i06r9j__efvkisi5VzC8-35" value="Reduce fryer heat" style="shape=parallelogram;perimeter=parallelogramPerimeter;whiteSpace=wrap;html=1;fixedSize=1;" parent="1" vertex="1">
          <mxGeometry x="240" y="590" width="150" height="40" as="geometry" />
        </mxCell>
        <mxCell id="i06r9j__efvkisi5VzC8-36" value="" style="endArrow=classic;html=1;rounded=0;exitX=0.5;exitY=1;exitDx=0;exitDy=0;" parent="1" source="i06r9j__efvkisi5VzC8-32" edge="1">
          <mxGeometry width="50" height="50" relative="1" as="geometry">
            <mxPoint x="400" y="640" as="sourcePoint" />
            <mxPoint x="130" y="680" as="targetPoint" />
          </mxGeometry>
        </mxCell>
        <mxCell id="i06r9j__efvkisi5VzC8-37" value="Max temp&amp;nbsp;&lt;div&gt;&amp;lt;10 degrees&lt;/div&gt;" style="rhombus;whiteSpace=wrap;html=1;" parent="1" vertex="1">
          <mxGeometry x="60" y="680" width="145" height="80" as="geometry" />
        </mxCell>
        <mxCell id="i06r9j__efvkisi5VzC8-38" value="" style="endArrow=classic;html=1;rounded=0;exitX=0.967;exitY=0.5;exitDx=0;exitDy=0;exitPerimeter=0;" parent="1" source="i06r9j__efvkisi5VzC8-37" edge="1">
          <mxGeometry width="50" height="50" relative="1" as="geometry">
            <mxPoint x="210" y="720" as="sourcePoint" />
            <mxPoint x="250" y="720" as="targetPoint" />
          </mxGeometry>
        </mxCell>
        <mxCell id="i06r9j__efvkisi5VzC8-39" value="Increase fryer heat" style="shape=parallelogram;perimeter=parallelogramPerimeter;whiteSpace=wrap;html=1;fixedSize=1;" parent="1" vertex="1">
          <mxGeometry x="240" y="700" width="140" height="40" as="geometry" />
        </mxCell>
        <mxCell id="i06r9j__efvkisi5VzC8-41" value="" style="endArrow=classic;html=1;rounded=0;exitX=0.5;exitY=1;exitDx=0;exitDy=0;" parent="1" source="i06r9j__efvkisi5VzC8-37" edge="1">
          <mxGeometry width="50" height="50" relative="1" as="geometry">
            <mxPoint x="142" y="820" as="sourcePoint" />
            <mxPoint x="133" y="780" as="targetPoint" />
          </mxGeometry>
        </mxCell>
        <mxCell id="R3xODDcdEsmtkFM26onG-11" style="edgeStyle=orthogonalEdgeStyle;rounded=0;orthogonalLoop=1;jettySize=auto;html=1;exitX=0.5;exitY=1;exitDx=0;exitDy=0;" edge="1" parent="1" source="i06r9j__efvkisi5VzC8-45">
          <mxGeometry relative="1" as="geometry">
            <mxPoint x="130" y="900" as="targetPoint" />
          </mxGeometry>
        </mxCell>
        <mxCell id="i06r9j__efvkisi5VzC8-45" value="&amp;nbsp; Range&lt;div&gt;temp below&amp;nbsp;&lt;div&gt;150 &amp;amp;190&lt;/div&gt;&lt;div&gt;degrees&lt;/div&gt;&lt;/div&gt;" style="rhombus;whiteSpace=wrap;html=1;" parent="1" vertex="1">
          <mxGeometry x="55" y="780" width="150" height="90" as="geometry" />
        </mxCell>
        <mxCell id="i06r9j__efvkisi5VzC8-50" value="If it falls within&amp;nbsp;&lt;div&gt;this range&lt;/div&gt;" style="rhombus;whiteSpace=wrap;html=1;" parent="1" vertex="1">
          <mxGeometry x="60" y="900" width="140" height="100" as="geometry" />
        </mxCell>
        <mxCell id="i06r9j__efvkisi5VzC8-52" value="" style="endArrow=classic;html=1;rounded=0;exitX=1;exitY=0.5;exitDx=0;exitDy=0;" parent="1" source="i06r9j__efvkisi5VzC8-50" edge="1" target="i06r9j__efvkisi5VzC8-47">
          <mxGeometry width="50" height="50" relative="1" as="geometry">
            <mxPoint x="400" y="760" as="sourcePoint" />
            <mxPoint x="230" y="965" as="targetPoint" />
          </mxGeometry>
        </mxCell>
        <mxCell id="i06r9j__efvkisi5VzC8-54" value="" style="endArrow=classic;html=1;rounded=0;entryX=0;entryY=0.5;entryDx=0;entryDy=0;" parent="1" source="i06r9j__efvkisi5VzC8-47" target="i06r9j__efvkisi5VzC8-55" edge="1">
          <mxGeometry width="50" height="50" relative="1" as="geometry">
            <mxPoint x="420" y="950" as="sourcePoint" />
            <mxPoint x="420" y="980" as="targetPoint" />
            <Array as="points" />
          </mxGeometry>
        </mxCell>
        <mxCell id="i06r9j__efvkisi5VzC8-55" value="Display Mangwinya are ready" style="shape=parallelogram;perimeter=parallelogramPerimeter;whiteSpace=wrap;html=1;fixedSize=1;" parent="1" vertex="1">
          <mxGeometry x="435" y="925" width="150" height="50" as="geometry" />
        </mxCell>
        <mxCell id="i06r9j__efvkisi5VzC8-58" value="" style="endArrow=classic;html=1;rounded=0;entryX=0;entryY=0.5;entryDx=0;entryDy=0;" parent="1" edge="1" target="i06r9j__efvkisi5VzC8-59">
          <mxGeometry width="50" height="50" relative="1" as="geometry">
            <mxPoint x="580" y="950" as="sourcePoint" />
            <mxPoint x="610" y="965" as="targetPoint" />
          </mxGeometry>
        </mxCell>
        <mxCell id="i06r9j__efvkisi5VzC8-59" value="End" style="ellipse;whiteSpace=wrap;html=1;" parent="1" vertex="1">
          <mxGeometry x="620" y="925" width="90" height="50" as="geometry" />
        </mxCell>
        <mxCell id="wdB16BLXyqzdR9jWIXP9-1" value="" style="endArrow=classic;html=1;rounded=0;entryX=0;entryY=0.5;entryDx=0;entryDy=0;" parent="1" target="i06r9j__efvkisi5VzC8-47" edge="1">
          <mxGeometry width="50" height="50" relative="1" as="geometry">
            <mxPoint x="315" y="965" as="sourcePoint" />
            <mxPoint x="430" y="965" as="targetPoint" />
            <Array as="points" />
          </mxGeometry>
        </mxCell>
        <mxCell id="i06r9j__efvkisi5VzC8-47" value="Diaplay: Oil is not ready for frying" style="shape=parallelogram;perimeter=parallelogramPerimeter;whiteSpace=wrap;html=1;fixedSize=1;" parent="1" vertex="1">
          <mxGeometry x="230" y="925" width="205" height="50" as="geometry" />
        </mxCell>
        <mxCell id="R3xODDcdEsmtkFM26onG-1" value="Range&lt;div&gt;temp&lt;span style=&quot;background-color: transparent; color: light-dark(rgb(0, 0, 0), rgb(255, 255, 255));&quot;&gt;&amp;nbsp;between&lt;/span&gt;&lt;/div&gt;&lt;div&gt;&lt;span style=&quot;background-color: transparent; color: light-dark(rgb(0, 0, 0), rgb(255, 255, 255));&quot;&gt;&amp;nbsp;150 &amp;amp; 190&lt;/span&gt;&lt;/div&gt;&lt;div&gt;&lt;span style=&quot;background-color: transparent; color: light-dark(rgb(0, 0, 0), rgb(255, 255, 255));&quot;&gt;&amp;nbsp;degrees&lt;/span&gt;&lt;/div&gt;" style="rhombus;whiteSpace=wrap;html=1;" vertex="1" parent="1">
          <mxGeometry x="52.5" y="1020" width="155" height="90" as="geometry" />
        </mxCell>
        <mxCell id="R3xODDcdEsmtkFM26onG-3" value="Display: Oil is not ready for frying" style="shape=parallelogram;perimeter=parallelogramPerimeter;whiteSpace=wrap;html=1;fixedSize=1;" vertex="1" parent="1">
          <mxGeometry x="255" y="1040" width="170" height="50" as="geometry" />
        </mxCell>
        <mxCell id="R3xODDcdEsmtkFM26onG-4" value="" style="endArrow=classic;html=1;rounded=0;exitX=1;exitY=0.5;exitDx=0;exitDy=0;" edge="1" parent="1" source="R3xODDcdEsmtkFM26onG-1" target="R3xODDcdEsmtkFM26onG-3">
          <mxGeometry width="50" height="50" relative="1" as="geometry">
            <mxPoint x="400" y="1130" as="sourcePoint" />
            <mxPoint x="450" y="1080" as="targetPoint" />
          </mxGeometry>
        </mxCell>
        <mxCell id="R3xODDcdEsmtkFM26onG-5" value="" style="endArrow=classic;html=1;rounded=0;exitX=0.5;exitY=1;exitDx=0;exitDy=0;entryX=0.5;entryY=0;entryDx=0;entryDy=0;" edge="1" parent="1" source="i06r9j__efvkisi5VzC8-50" target="R3xODDcdEsmtkFM26onG-1">
          <mxGeometry width="50" height="50" relative="1" as="geometry">
            <mxPoint x="120" y="1070" as="sourcePoint" />
            <mxPoint x="125" y="1060" as="targetPoint" />
          </mxGeometry>
        </mxCell>
        <mxCell id="R3xODDcdEsmtkFM26onG-6" value="" style="endArrow=classic;html=1;rounded=0;entryX=0.553;entryY=1.04;entryDx=0;entryDy=0;entryPerimeter=0;exitX=1;exitY=0.5;exitDx=0;exitDy=0;" edge="1" parent="1" source="R3xODDcdEsmtkFM26onG-3" target="i06r9j__efvkisi5VzC8-55">
          <mxGeometry width="50" height="50" relative="1" as="geometry">
            <mxPoint x="420" y="1060" as="sourcePoint" />
            <mxPoint x="520" y="1000" as="targetPoint" />
            <Array as="points">
              <mxPoint x="518" y="1065" />
            </Array>
          </mxGeometry>
        </mxCell>
        <mxCell id="R3xODDcdEsmtkFM26onG-7" value="Display: Oil is not ready&lt;div&gt;&amp;nbsp;for friying&lt;/div&gt;" style="shape=parallelogram;perimeter=parallelogramPerimeter;whiteSpace=wrap;html=1;fixedSize=1;" vertex="1" parent="1">
          <mxGeometry x="260" y="800" width="160" height="60" as="geometry" />
        </mxCell>
        <mxCell id="R3xODDcdEsmtkFM26onG-8" value="" style="endArrow=classic;html=1;rounded=0;exitX=1;exitY=0.5;exitDx=0;exitDy=0;" edge="1" parent="1" source="i06r9j__efvkisi5VzC8-45" target="R3xODDcdEsmtkFM26onG-7">
          <mxGeometry width="50" height="50" relative="1" as="geometry">
            <mxPoint x="330" y="910" as="sourcePoint" />
            <mxPoint x="380" y="860" as="targetPoint" />
          </mxGeometry>
        </mxCell>
        <mxCell id="R3xODDcdEsmtkFM26onG-9" value="" style="endArrow=classic;html=1;rounded=0;" edge="1" parent="1" source="R3xODDcdEsmtkFM26onG-7">
          <mxGeometry width="50" height="50" relative="1" as="geometry">
            <mxPoint x="330" y="910" as="sourcePoint" />
            <mxPoint x="520" y="920" as="targetPoint" />
            <Array as="points">
              <mxPoint x="520" y="830" />
            </Array>
          </mxGeometry>
        </mxCell>
        <mxCell id="R3xODDcdEsmtkFM26onG-12" style="edgeStyle=orthogonalEdgeStyle;rounded=0;orthogonalLoop=1;jettySize=auto;html=1;exitX=0.5;exitY=1;exitDx=0;exitDy=0;" edge="1" parent="1" source="i06r9j__efvkisi5VzC8-50" target="i06r9j__efvkisi5VzC8-50">
          <mxGeometry relative="1" as="geometry" />
        </mxCell>
        <mxCell id="R3xODDcdEsmtkFM26onG-13" style="edgeStyle=orthogonalEdgeStyle;rounded=0;orthogonalLoop=1;jettySize=auto;html=1;exitX=0.5;exitY=1;exitDx=0;exitDy=0;" edge="1" parent="1" source="R3xODDcdEsmtkFM26onG-1" target="R3xODDcdEsmtkFM26onG-1">
          <mxGeometry relative="1" as="geometry" />
        </mxCell>
      </root>
    </mxGraphModel>
  </diagram>
</mxfile>
